# xmcd
#
# Track frame offsets:
#   150
#   11064
#   22140
#   33759
#   47284
#   62641
#   73084
#   91842
#   102544
#   118384
#   130674
#   150104
#
# Disc length: 2125 seconds
#
# Revision: 0
# Processed by: cddbd v1.4PL0 Copyright (c) Steve Scherf et al.
# Submitted via: uFREEDB 1.6.0
#
DISCID=94084b0c
DTITLE=Chucho Avellanet - Voces Legendarias
DYEAR=1998
DGENRE=Blues
TTITLE0=Jamas te olvidare
TTITLE1=Beatriz
TTITLE2=Me esta doliendo el alma
TTITLE3=Aquella risa loca
TTITLE4=Piensalo  bien
TTITLE5=No te importe saber
TTITLE6=Y entonces
TTITLE7=Amarraditos
TTITLE8=Juramento
TTITLE9=Tristeza marina
TTITLE10=Vete de mi
TTITLE11=No te muerdas los labios
EXTD=
EXTT0=
EXTT1=
EXTT2=
EXTT3=
EXTT4=
EXTT5=
EXTT6=
EXTT7=
EXTT8=
EXTT9=
EXTT10=
EXTT11=
PLAYORDER=
